<svg xmlns="http://www.w3.org/2000/svg" xmlns:xlink="http://www.w3.org/1999/xlink" width="400" zoomAndPan="magnify" viewBox="0 0 300 74.999997" height="100" preserveAspectRatio="xMidYMid meet" version="1.0"><defs><g/></defs><g fill="#ffffff" fill-opacity="1"><g transform="translate(1.197683, 58.988976)"><g><path d="M 3.84375 0 L 3.171875 -4.734375 L 3.21875 -4.734375 L 28.03125 -39 L 8.984375 -39 L 8.984375 -26.96875 L 3.671875 -26.96875 L 3.671875 -42.90625 L 34.328125 -42.90625 L 35.5 -38.0625 L 10.859375 -4.078125 L 31.140625 -4.078125 L 31.140625 -16.828125 L 36.4375 -16.828125 L 36.4375 0 Z M 3.84375 0 "/></g></g></g><g fill="#ffffff" fill-opacity="1"><g transform="translate(65.816604, 58.988976)"><g><path d="M 0.859375 0 L 0.859375 -4.078125 L 7.8125 -4.078125 L 7.8125 -38.828125 L 0.859375 -38.828125 L 0.859375 -42.90625 L 21.0625 -42.90625 L 21.0625 -38.828125 L 14.515625 -38.828125 L 14.515625 -4.078125 L 21.0625 -4.078125 L 21.0625 0 Z M 0.859375 0 "/></g></g></g><g fill="#ffffff" fill-opacity="1"><g transform="translate(113.612884, 58.988976)"><g><path d="M 10.578125 0 L 10.578125 -4.078125 L 17.21875 -4.078125 L 17.21875 -38.828125 L 6.296875 -38.828125 L 6.296875 -25.578125 L 1 -25.578125 L 1 -42.90625 L 39.9375 -42.90625 L 39.9375 -25.578125 L 34.609375 -25.578125 L 34.609375 -38.828125 L 23.953125 -38.828125 L 23.953125 -4.078125 L 30.765625 -4.078125 L 30.765625 0 Z M 10.578125 0 "/></g></g></g><g fill="#ffffff" fill-opacity="1"><g transform="translate(180.39879, 58.988976)"><g><path d="M 36.546875 0.9375 C 35.390625 0.9375 34.335938 0.734375 33.390625 0.328125 C 32.453125 -0.078125 31.660156 -0.644531 31.015625 -1.375 C 30.410156 -2.03125 29.859375 -2.9375 29.359375 -4.09375 C 28.867188 -5.257812 28.453125 -6.523438 28.109375 -7.890625 C 27.734375 -9.453125 27.410156 -11.003906 27.140625 -12.546875 C 26.972656 -13.628906 26.675781 -14.625 26.25 -15.53125 C 25.832031 -16.445312 25.390625 -17.148438 24.921875 -17.640625 C 24.460938 -18.097656 23.972656 -18.488281 23.453125 -18.8125 C 22.941406 -19.132812 22.519531 -19.34375 22.1875 -19.4375 C 21.875 -19.519531 21.585938 -19.5625 21.328125 -19.5625 L 14.59375 -19.5625 L 14.59375 -4.078125 L 21.0625 -4.078125 L 21.0625 0 L 0.9375 0 L 0.9375 -4.078125 L 7.875 -4.078125 L 7.875 -38.828125 L 0.9375 -38.828125 L 0.9375 -42.90625 L 18.671875 -42.90625 C 19.929688 -42.90625 20.984375 -42.882812 21.828125 -42.84375 C 22.671875 -42.8125 23.738281 -42.738281 25.03125 -42.625 C 26.613281 -42.46875 27.910156 -42.253906 28.921875 -41.984375 C 29.941406 -41.722656 31.078125 -41.3125 32.328125 -40.75 C 33.523438 -40.195312 34.476562 -39.535156 35.1875 -38.765625 C 35.90625 -37.992188 36.507812 -36.988281 37 -35.75 C 37.476562 -34.550781 37.71875 -33.164062 37.71875 -31.59375 C 37.71875 -28.257812 36.679688 -25.78125 34.609375 -24.15625 C 33.597656 -23.375 32.503906 -22.738281 31.328125 -22.25 C 30.148438 -21.769531 28.734375 -21.359375 27.078125 -21.015625 C 28.179688 -20.785156 29.101562 -20.46875 29.84375 -20.0625 C 30.59375 -19.664062 31.222656 -19.144531 31.734375 -18.5 C 32.210938 -17.875 32.597656 -17.207031 32.890625 -16.5 C 33.179688 -15.800781 33.488281 -14.875 33.8125 -13.71875 C 34.0625 -12.78125 34.414062 -11.238281 34.875 -9.09375 C 34.988281 -8.445312 35.15625 -7.78125 35.375 -7.09375 C 35.601562 -6.414062 35.832031 -5.882812 36.0625 -5.5 C 36.3125 -5.082031 36.625 -4.738281 37 -4.46875 C 37.382812 -4.207031 37.816406 -4.078125 38.296875 -4.078125 C 40.253906 -4.078125 41.234375 -5.875 41.234375 -9.46875 L 41.234375 -13.421875 L 45.078125 -13.421875 L 45.078125 -9.234375 C 45.078125 -2.453125 42.234375 0.9375 36.546875 0.9375 Z M 18.15625 -23.828125 C 21.21875 -23.828125 23.695312 -24.050781 25.59375 -24.5 C 27.5 -24.945312 28.984375 -25.703125 30.046875 -26.765625 C 31.148438 -27.847656 31.703125 -29.285156 31.703125 -31.078125 C 31.703125 -32.617188 31.425781 -33.890625 30.875 -34.890625 C 30.320312 -35.898438 29.445312 -36.703125 28.25 -37.296875 C 27.070312 -37.847656 25.679688 -38.238281 24.078125 -38.46875 C 22.472656 -38.707031 20.425781 -38.828125 17.9375 -38.828125 L 14.59375 -38.828125 L 14.59375 -23.828125 Z M 18.15625 -23.828125 "/></g></g></g><g fill="#ffffff" fill-opacity="1"><g transform="translate(251.404602, 58.988976)"><g><path d="M 0.234375 0 L 0.234375 -4.078125 L 5.359375 -4.078125 L 20.390625 -42.90625 L 27.140625 -42.90625 L 42.390625 -4.078125 L 47.1875 -4.078125 L 47.1875 0 L 28.734375 0 L 28.734375 -4.078125 L 35.09375 -4.078125 L 31.140625 -14.375 L 14.65625 -14.375 L 10.921875 -4.078125 L 18.109375 -4.078125 L 18.109375 0 Z M 16 -17.984375 L 29.703125 -17.984375 L 22.671875 -37.328125 Z M 16 -17.984375 "/></g></g></g></svg>